<?xml version="1.0" standalone="no"?>
<!DOCTYPE svg PUBLIC "-//W3C//DTD SVG 20010904//EN"
 "http://www.w3.org/TR/2001/REC-SVG-20010904/DTD/svg10.dtd">
<svg version="1.0" xmlns="http://www.w3.org/2000/svg"
 width="1920.000000pt" height="1080.000000pt" viewBox="0 0 1920.000000 1080.000000"
 preserveAspectRatio="xMidYMid meet">
<metadata>
Created by potrace 1.16, written by Peter Selinger 2001-2019
</metadata>
<g transform="translate(0.000000,1080.000000) scale(0.100000,-0.100000)"
fill="#000000" stroke="none">
<path d="M4750 8304 c-89 -23 -158 -64 -215 -125 -83 -90 -112 -207 -81 -326
38 -151 140 -233 397 -321 142 -49 210 -83 238 -118 70 -89 43 -226 -54 -281
-125 -71 -317 -45 -466 62 l-48 34 -68 -76 -68 -75 40 -35 c49 -42 201 -116
275 -135 83 -20 300 -17 375 6 140 42 241 123 293 234 24 51 27 68 27 172 0
106 -2 120 -28 172 -54 110 -156 178 -389 259 -211 73 -252 103 -264 191 -7
60 27 125 81 152 33 17 58 21 145 21 94 0 112 -3 165 -28 32 -15 74 -39 91
-52 18 -14 35 -25 37 -25 2 0 32 32 67 72 l63 72 -39 34 c-49 42 -161 97 -239
117 -76 19 -261 19 -335 -1z"/>
<path d="M6151 8305 c-222 -62 -374 -236 -425 -487 -23 -109 -21 -318 3 -433
54 -261 212 -430 448 -480 182 -39 380 8 510 120 l37 32 -58 74 c-33 41 -60
75 -61 77 -2 2 -31 -15 -66 -37 -164 -102 -335 -90 -443 29 -80 89 -110 199
-110 410 0 227 37 346 135 434 108 97 275 101 413 10 l40 -27 63 69 c34 38 63
74 63 81 0 17 -107 84 -180 112 -84 31 -283 40 -369 16z"/>
<path d="M7433 8306 c-198 -50 -341 -197 -409 -421 -26 -85 -28 -101 -28 -280
0 -179 2 -195 28 -280 84 -273 257 -416 524 -431 307 -18 530 148 614 456 19
73 23 109 23 260 0 151 -4 187 -23 260 -57 209 -174 349 -349 417 -59 23 -86
27 -198 29 -85 2 -148 -1 -182 -10z m282 -210 c98 -45 161 -144 185 -288 16
-98 12 -337 -6 -425 -28 -137 -90 -228 -182 -270 -25 -11 -65 -16 -122 -17
-73 0 -92 4 -136 26 -129 67 -185 215 -186 483 0 219 29 334 104 420 59 67
123 95 218 95 58 0 87 -6 125 -24z"/>
<path d="M2330 7605 l0 -687 263 4 c228 4 272 8 341 26 218 60 360 197 411
397 38 150 38 392 0 539 -50 193 -174 311 -395 377 -68 20 -102 23 -347 27
l-273 4 0 -687z m480 484 c125 -20 205 -86 249 -204 70 -186 46 -522 -44 -641
-64 -84 -166 -124 -317 -124 l-98 0 0 490 0 490 73 0 c39 0 101 -5 137 -11z"/>
<path d="M3780 7605 l0 -685 130 0 130 0 0 685 0 685 -130 0 -130 0 0 -685z"/>
<path d="M8430 8263 c5 -16 82 -266 170 -558 89 -291 179 -587 201 -658 l40
-128 156 3 157 3 201 680 202 680 -130 3 c-76 1 -133 -1 -136 -7 -3 -5 -69
-257 -146 -560 -77 -303 -142 -551 -145 -551 -3 0 -70 251 -150 558 l-145 557
-142 3 -142 3 9 -28z"/>
<path d="M9870 7605 l0 -685 400 0 400 0 0 100 0 100 -270 0 -270 0 0 200 0
200 220 0 220 0 0 100 0 100 -220 0 -220 0 0 190 0 190 253 0 254 0 11 83 c7
45 12 88 12 95 0 9 -86 12 -395 12 l-395 0 0 -685z"/>
<path d="M11070 7605 l0 -685 135 0 135 0 0 275 0 275 83 0 82 0 150 -275 150
-274 152 -1 152 0 -178 297 -179 298 66 35 c131 69 197 167 209 310 13 166
-61 301 -202 371 -100 49 -184 59 -486 59 l-269 0 0 -685z m585 465 c68 -35
95 -88 95 -184 -1 -167 -79 -226 -302 -226 l-108 0 0 221 0 221 133 -4 c118
-3 138 -6 182 -28z"/>
<path d="M1194 6356 c-48 -21 -102 -91 -110 -143 -15 -100 49 -191 148 -213
39 -8 1585 -10 5958 -8 l5905 3 42 23 c78 41 119 138 93 217 -16 47 -66 104
-107 121 -48 21 -11883 20 -11929 0z"/>
<path d="M4224 5356 c-485 -110 -838 -724 -775 -1346 22 -209 66 -370 149
-535 61 -124 112 -196 201 -289 181 -187 361 -269 591 -270 129 0 188 11 297
54 265 106 480 365 591 710 130 408 76 888 -139 1237 -75 121 -238 286 -344
347 -129 75 -215 98 -375 102 -90 2 -155 -1 -196 -10z m351 -115 c215 -76 338
-281 397 -661 29 -186 32 -683 5 -860 -51 -341 -162 -553 -334 -642 -82 -43
-148 -58 -251 -58 -306 0 -493 211 -566 637 -55 324 -44 825 25 1096 74 291
219 462 432 507 71 15 225 5 292 -19z"/>
<path d="M16950 5350 c-206 -53 -397 -201 -536 -415 -69 -107 -95 -161 -138
-284 -51 -146 -76 -276 -83 -431 -27 -622 294 -1160 768 -1287 98 -26 281 -23
384 6 250 70 459 257 598 536 209 419 205 939 -11 1359 -137 267 -354 454
-601 517 -101 26 -278 25 -381 -1z m380 -113 c258 -105 378 -366 411 -896 31
-489 -35 -893 -179 -1106 -92 -135 -216 -204 -382 -212 -348 -19 -540 199
-617 697 -23 148 -26 682 -4 830 59 418 202 639 456 706 81 22 237 12 315 -19z"/>
<path d="M5437 5313 c-4 -3 -7 -28 -7 -55 l0 -48 139 0 c122 0 142 -2 162 -19
l24 -19 0 -1025 c0 -994 -1 -1026 -19 -1046 -18 -19 -29 -21 -163 -21 l-143 0
0 -55 0 -55 505 0 505 0 0 55 0 55 -170 0 c-157 0 -172 2 -190 20 -19 19 -20
33 -20 551 l0 530 223 -3 c253 -3 274 -9 340 -90 80 -99 104 -194 118 -458 25
-492 90 -642 299 -686 168 -35 301 21 371 157 32 63 58 180 65 294 l7 105 -41
0 -41 0 -5 -57 c-19 -187 -43 -258 -100 -288 -30 -16 -40 -17 -75 -6 -71 21
-88 66 -127 339 -14 103 -36 228 -49 277 -59 232 -175 371 -357 426 -65 20
-82 39 -34 39 48 0 184 42 263 81 92 46 194 133 242 207 87 137 102 312 39
478 -26 71 -133 184 -215 227 -82 44 -229 77 -388 87 -160 11 -1148 13 -1158
3z m1218 -131 c162 -74 229 -191 229 -402 1 -218 -71 -357 -225 -436 -80 -40
-178 -53 -401 -54 l-198 0 0 435 0 436 25 25 26 26 247 -4 c232 -3 250 -5 297
-26z"/>
<path d="M7500 5265 l0 -55 131 0 c125 0 163 -7 181 -34 4 -6 8 -471 8 -1033
0 -1010 0 -1023 -20 -1043 -18 -18 -33 -20 -160 -20 l-140 0 0 -55 0 -55 880
0 c696 0 881 3 885 13 2 6 11 172 19 367 9 195 19 390 23 433 l6 78 -44 -3
-43 -3 -13 -90 c-16 -116 -53 -262 -88 -350 -57 -146 -124 -229 -224 -280 -99
-50 -143 -55 -448 -55 -270 0 -284 1 -303 20 -20 20 -20 33 -20 1043 0 562 4
1027 8 1033 18 28 56 34 212 34 l161 0 -3 53 -3 52 -502 3 -503 2 0 -55z"/>
<path d="M10465 5308 c-3 -7 -162 -458 -355 -1003 -193 -545 -361 -1012 -374
-1040 -38 -82 -80 -130 -137 -159 -46 -22 -65 -26 -146 -26 l-93 0 0 -55 0
-55 450 0 450 0 0 55 0 55 -111 0 c-129 0 -167 13 -201 69 -19 30 -23 49 -22
111 1 74 7 96 104 368 l12 32 381 0 382 0 78 -228 c42 -125 77 -241 77 -259 0
-80 -29 -93 -200 -93 l-130 0 0 -55 0 -55 895 0 895 0 0 55 0 55 -79 0 c-44 0
-92 5 -108 11 -38 14 -80 56 -106 104 -22 40 -22 40 -25 905 -1 543 1 861 7
855 8 -9 223 -347 1042 -1643 l254 -402 65 2 65 3 5 1070 5 1070 22 40 c45 85
103 115 223 115 l81 0 -3 53 -3 52 -390 0 -390 0 -3 -52 -3 -53 73 0 c123 0
174 -27 221 -115 22 -40 22 -42 24 -825 2 -480 -1 -779 -7 -770 -5 8 -261 420
-568 915 l-560 900 -311 3 -311 2 0 -55 0 -55 138 0 c156 0 168 -4 182 -65 13
-54 12 -1758 0 -1855 -12 -91 -48 -155 -105 -187 -38 -21 -51 -23 -245 -23
-233 0 -252 5 -302 76 -19 26 -146 386 -387 1091 -198 579 -362 1057 -366
1063 -9 14 -85 13 -90 -2z m125 -1028 c90 -261 165 -481 167 -487 4 -10 -66
-13 -331 -13 -185 0 -336 3 -336 7 0 22 326 981 331 975 4 -4 80 -221 169
-482z"/>
<path d="M13887 5314 c-4 -4 -7 -29 -7 -56 l0 -48 140 0 c136 0 142 -1 165
-25 l25 -24 0 -1019 c0 -863 -2 -1021 -14 -1038 -13 -17 -31 -20 -163 -24
l-148 -5 0 -50 0 -50 670 0 670 0 80 23 c380 112 645 415 746 853 29 128 37
384 15 524 -73 480 -373 829 -790 922 -59 14 -178 17 -726 20 -361 2 -659 1
-663 -3z m1297 -114 c84 -14 191 -67 260 -131 188 -172 286 -483 287 -909 1
-552 -167 -932 -463 -1050 -62 -24 -68 -25 -388 -28 -323 -3 -326 -3 -345 18
-20 22 -20 43 -20 1047 l0 1025 24 19 c22 18 42 19 305 19 154 0 308 -4 340
-10z"/>
</g>
</svg>
